G04 ================== begin FILE IDENTIFICATION RECORD ==================*
G04 Layout Name:  E:/greu/allegro/P1.brd*
G04 Film Name:    FAB*
G04 File Format:  Gerber RS274X*
G04 File Origin:  Cadence Allegro 17.2-S025*
G04 Origin Date:  Sun Dec 15 03:01:12 2024*
G04 *
G04 Layer:  MANUFACTURING/NCDRILL_LEGEND*
G04 Layer:  MANUFACTURING/NCDRILL_FIGURE*
G04 Layer:  MANUFACTURING/XSECTION_CHART*
G04 Layer:  MANUFACTURING/NCLEGEND-1-2*
G04 *
G04 Offset:    (0.0000 0.0000)*
G04 Mirror:    No*
G04 Mode:      Positive*
G04 Rotation:  0*
G04 FullContactRelief:  No*
G04 UndefLineWidth:     0.1000*
G04 ================== end FILE IDENTIFICATION RECORD ====================*
%FSLAX31Y31*MOMM*%
%IR0*IPPOS*OFA0.00000B0.00000*MIA0B0*SFA1.00000B1.00000*%
%AMMACRO10*
1,1,.1,0.0,.5*
20,1,.1,0.0,.5,.5,-.5,0.0*
1,1,.1,.5,-.5*
20,1,.1,.5,-.5,-.5,-.5,0.0*
1,1,.1,-.5,-.5*
20,1,.1,-.5,-.5,0.0,.5,0.0*
1,1,.1,0.0,.5*
1,1,.1,.25,0.0*
20,1,.1,.25,0.0,-.25,0.0,0.0*
1,1,.1,-.25,0.0*
1,1,.1,0.0,.25*
20,1,.1,0.0,.25,0.0,-.25,0.0*
1,1,.1,0.0,-.25*
%
%ADD10MACRO10*%
%ADD11C,.15*%
%ADD12C,.1*%
G75*
%LPD*%
G75*
G36*
G01X-512Y567D02*
Y562D01*
X-505D01*
Y66D01*
X-512D01*
Y60D01*
X-474D01*
Y66D01*
X-480D01*
Y562D01*
X-474D01*
Y567D01*
X-512D01*
G37*
G36*
G01X-563Y60D02*
Y66D01*
X-410D01*
Y60D01*
X-563D01*
G37*
G36*
G01Y562D02*
Y567D01*
X-410D01*
Y562D01*
X-563D01*
G37*
G54D10*
X-202Y-281D03*
X125Y52D03*
Y101D03*
X125Y315D03*
X183Y177D03*
X162Y248D03*
X225Y216D03*
X214Y235D03*
X201Y335D03*
X278Y224D03*
X271Y205D03*
X289Y245D03*
X235Y264D03*
X284Y326D03*
X363Y112D03*
G54D11*
G01X-634Y15D02*
Y25D01*
X-631D01*
X-629Y25D01*
X-628Y24D01*
X-628Y23D01*
X-627Y22D01*
X-627Y20D01*
X-627Y18D01*
X-628Y17D01*
X-628Y16D01*
X-629Y16D01*
X-631Y15D01*
X-634D01*
G01X-616D02*
X-622D01*
Y25D01*
X-616D01*
G01X-618Y20D02*
X-622D01*
G01X-611Y16D02*
X-610Y16D01*
X-608Y15D01*
X-607D01*
X-605Y16D01*
X-604Y16D01*
X-604Y18D01*
X-604Y19D01*
X-605Y20D01*
X-607Y20D01*
X-609Y21D01*
X-610Y21D01*
X-610Y23D01*
X-610Y24D01*
X-609Y25D01*
X-608Y25D01*
X-607D01*
X-606Y25D01*
X-605Y24D01*
G01X-598Y25D02*
X-594D01*
G01X-596D02*
Y15D01*
G01X-598D02*
X-594D01*
G01X-583Y20D02*
X-580D01*
Y17D01*
X-581Y16D01*
X-582Y15D01*
X-584Y15D01*
X-586Y15D01*
X-587Y16D01*
X-588Y17D01*
X-588Y18D01*
X-589Y20D01*
Y21D01*
X-588Y22D01*
X-588Y23D01*
X-587Y24D01*
X-586Y25D01*
X-584Y25D01*
X-583D01*
X-582Y25D01*
X-581Y24D01*
G01X-577Y15D02*
Y25D01*
X-569Y15D01*
Y25D01*
G01X-546Y24D02*
X-547Y25D01*
X-548Y25D01*
X-550D01*
X-551Y25D01*
X-552Y24D01*
X-553Y23D01*
X-554Y21D01*
X-554Y20D01*
X-554Y18D01*
X-553Y17D01*
X-552Y16D01*
X-551Y15D01*
X-550Y15D01*
X-549D01*
X-547Y15D01*
X-546Y16D01*
X-546Y17D01*
G01X-542Y15D02*
Y25D01*
X-537D01*
X-536Y25D01*
X-535Y24D01*
X-535Y23D01*
X-535Y21D01*
X-536Y20D01*
X-537Y20D01*
X-542D01*
G01X-537D02*
X-535Y15D01*
G01X-527D02*
X-528Y15D01*
X-529Y16D01*
X-530Y17D01*
X-531Y18D01*
X-531Y19D01*
Y21D01*
X-531Y22D01*
X-530Y23D01*
X-529Y24D01*
X-528Y25D01*
X-527Y25D01*
X-525Y25D01*
X-524Y24D01*
X-523Y23D01*
X-523Y22D01*
X-522Y21D01*
Y19D01*
X-523Y18D01*
X-523Y17D01*
X-524Y16D01*
X-525Y15D01*
X-527Y15D01*
G01X-519Y16D02*
X-517Y16D01*
X-516Y15D01*
X-515D01*
X-513Y16D01*
X-512Y16D01*
X-512Y18D01*
X-512Y19D01*
X-513Y20D01*
X-514Y20D01*
X-516Y21D01*
X-518Y21D01*
X-518Y23D01*
X-518Y24D01*
X-517Y25D01*
X-516Y25D01*
X-515D01*
X-513Y25D01*
X-512Y24D01*
G01X-507Y16D02*
X-506Y16D01*
X-504Y15D01*
X-503D01*
X-502Y16D01*
X-501Y16D01*
X-500Y18D01*
X-501Y19D01*
X-501Y20D01*
X-503Y20D01*
X-505Y21D01*
X-506Y21D01*
X-507Y23D01*
X-506Y24D01*
X-505Y25D01*
X-504Y25D01*
X-503D01*
X-502Y25D01*
X-501Y24D01*
G01X-484Y16D02*
X-483Y16D01*
X-481Y15D01*
X-480D01*
X-479Y16D01*
X-478Y16D01*
X-477Y18D01*
X-478Y19D01*
X-478Y20D01*
X-480Y20D01*
X-482Y21D01*
X-483Y21D01*
X-484Y23D01*
X-483Y24D01*
X-482Y25D01*
X-481Y25D01*
X-480D01*
X-479Y25D01*
X-478Y24D01*
G01X-466Y15D02*
X-472D01*
Y25D01*
X-466D01*
G01X-468Y20D02*
X-472D01*
G01X-454Y24D02*
X-455Y25D01*
X-456Y25D01*
X-457D01*
X-459Y25D01*
X-460Y24D01*
X-461Y23D01*
X-462Y21D01*
X-462Y20D01*
X-461Y18D01*
X-461Y17D01*
X-460Y16D01*
X-459Y15D01*
X-458Y15D01*
X-456D01*
X-455Y15D01*
X-454Y16D01*
X-453Y17D01*
G01X-446Y25D02*
Y15D01*
G01X-450Y25D02*
X-442D01*
G01X-437D02*
X-433D01*
G01X-435D02*
Y15D01*
G01X-437D02*
X-433D01*
G01X-423D02*
X-424Y15D01*
X-426Y16D01*
X-427Y17D01*
X-427Y18D01*
X-428Y19D01*
Y21D01*
X-427Y22D01*
X-427Y23D01*
X-426Y24D01*
X-424Y25D01*
X-423Y25D01*
X-422Y25D01*
X-421Y24D01*
X-420Y23D01*
X-419Y22D01*
X-419Y21D01*
Y19D01*
X-419Y18D01*
X-420Y17D01*
X-421Y16D01*
X-422Y15D01*
X-423Y15D01*
G01X-415D02*
Y25D01*
X-408Y15D01*
Y25D01*
G01X-385Y24D02*
X-386Y25D01*
X-387Y25D01*
X-388D01*
X-390Y25D01*
X-391Y24D01*
X-392Y23D01*
X-392Y21D01*
X-393Y20D01*
X-392Y18D01*
X-392Y17D01*
X-391Y16D01*
X-390Y15D01*
X-388Y15D01*
X-387D01*
X-386Y15D01*
X-385Y16D01*
X-384Y17D01*
G01X-380Y15D02*
Y25D01*
G01X-373D02*
Y15D01*
G01Y20D02*
X-380D01*
G01X-370Y15D02*
X-365Y25D01*
X-361Y15D01*
G01X-363Y19D02*
X-368D01*
G01X-357Y15D02*
Y25D01*
X-353D01*
X-352Y25D01*
X-351Y24D01*
X-351Y23D01*
X-351Y21D01*
X-352Y20D01*
X-353Y20D01*
X-357D01*
G01X-353D02*
X-351Y15D01*
G01X-342Y25D02*
Y15D01*
G01X-346Y25D02*
X-339D01*
G01X-641Y12D02*
X-631D01*
G01X-630D02*
X-620D01*
G01X-618D02*
X-608D01*
G01X-607D02*
X-597D01*
G01X-595D02*
X-585D01*
G01X-584D02*
X-574D01*
G01X-572D02*
X-562D01*
G01X-561D02*
X-551D01*
G01X-549D02*
X-539D01*
G01X-538D02*
X-528D01*
G01X-526D02*
X-516D01*
G01X-514D02*
X-504D01*
G01X-503D02*
X-493D01*
G01X-491D02*
X-481D01*
G01X-480D02*
X-470D01*
G01X-468D02*
X-458D01*
G01X-457D02*
X-447D01*
G01X-445D02*
X-435D01*
G01X-434D02*
X-424D01*
G01X-422D02*
X-412D01*
G01X-411D02*
X-401D01*
G01X-399D02*
X-389D01*
G01X-388D02*
X-378D01*
G01X-376D02*
X-366D01*
G01X-365D02*
X-355D01*
G01X-353D02*
X-343D01*
G01X-342D02*
X-332D01*
G01X-619Y7D02*
Y-3D01*
G01X-623Y7D02*
X-615D01*
G01X-607Y-3D02*
X-609Y-3D01*
X-610Y-2D01*
X-611Y-1D01*
X-612Y0D01*
X-612Y1D01*
Y3D01*
X-612Y4D01*
X-611Y5D01*
X-610Y6D01*
X-609Y7D01*
X-607Y7D01*
X-606Y7D01*
X-605Y6D01*
X-604Y5D01*
X-603Y4D01*
X-603Y3D01*
Y1D01*
X-603Y0D01*
X-604Y-1D01*
X-605Y-2D01*
X-606Y-3D01*
X-607Y-3D01*
G01X-596Y7D02*
Y-3D01*
G01X-600Y7D02*
X-592D01*
G01X-589Y-3D02*
X-584Y7D01*
X-580Y-3D01*
G01X-582Y1D02*
X-587D01*
G01X-576Y7D02*
Y-3D01*
X-570D01*
G01X-550Y7D02*
Y-3D01*
G01X-554Y7D02*
X-546D01*
G01X-542Y-3D02*
Y7D01*
G01X-535D02*
Y-3D01*
G01Y2D02*
X-542D01*
G01X-529Y7D02*
X-525D01*
G01X-527D02*
Y-3D01*
G01X-529D02*
X-525D01*
G01X-512Y6D02*
X-513Y7D01*
X-514Y7D01*
X-515D01*
X-517Y7D01*
X-518Y6D01*
X-519Y5D01*
X-519Y3D01*
X-519Y2D01*
X-519Y0D01*
X-519Y-1D01*
X-518Y-2D01*
X-516Y-3D01*
X-515Y-3D01*
X-514D01*
X-513Y-3D01*
X-512Y-2D01*
X-511Y-1D01*
G01X-507Y-3D02*
Y7D01*
G01X-501D02*
X-507Y1D01*
G01X-500Y-3D02*
X-505Y4D01*
G01X-496Y-3D02*
Y7D01*
X-488Y-3D01*
Y7D01*
G01X-477Y-3D02*
X-484D01*
Y7D01*
X-477D01*
G01X-480Y2D02*
X-484D01*
G01X-473Y-2D02*
X-471Y-2D01*
X-470Y-3D01*
X-468D01*
X-467Y-2D01*
X-466Y-2D01*
X-466Y0D01*
X-466Y1D01*
X-467Y2D01*
X-468Y2D01*
X-470Y3D01*
X-471Y3D01*
X-472Y5D01*
X-472Y6D01*
X-471Y7D01*
X-470Y7D01*
X-468D01*
X-467Y7D01*
X-466Y6D01*
G01X-461Y-2D02*
X-460Y-2D01*
X-458Y-3D01*
X-457D01*
X-456Y-2D01*
X-455Y-2D01*
X-454Y0D01*
X-454Y1D01*
X-455Y2D01*
X-457Y2D01*
X-459Y3D01*
X-460Y3D01*
X-460Y5D01*
X-460Y6D01*
X-459Y7D01*
X-458Y7D01*
X-457D01*
X-456Y7D01*
X-455Y6D01*
G01X-435Y-3D02*
Y7D01*
X-437Y5D01*
G01Y-3D02*
X-433D01*
G01X-423Y-3D02*
G01X-415Y1D02*
X-414Y2D01*
X-413Y3D01*
X-411Y3D01*
X-410Y3D01*
X-409Y2D01*
X-409Y1D01*
X-408Y0D01*
X-409Y-1D01*
X-409Y-2D01*
X-410Y-3D01*
X-411Y-3D01*
X-413Y-3D01*
X-414Y-2D01*
X-415Y0D01*
X-415Y2D01*
X-414Y4D01*
X-414Y5D01*
X-413Y6D01*
X-412Y7D01*
X-411Y7D01*
X-410Y7D01*
X-409Y6D01*
G01X-404Y-1D02*
X-403Y-2D01*
X-401Y-3D01*
X-400Y-3D01*
X-399Y-3D01*
X-397Y-2D01*
X-396Y-1D01*
X-396Y0D01*
X-397Y1D01*
X-398Y2D01*
X-399Y2D01*
X-400D01*
G01X-399D02*
X-398Y3D01*
X-397Y4D01*
X-397Y5D01*
X-397Y6D01*
X-398Y7D01*
X-399Y7D01*
X-401Y7D01*
X-402Y6D01*
G01X-392Y1D02*
X-390Y2D01*
X-389Y3D01*
X-388Y3D01*
X-387Y3D01*
X-386Y2D01*
X-385Y1D01*
X-385Y0D01*
X-385Y-1D01*
X-386Y-2D01*
X-387Y-3D01*
X-388Y-3D01*
X-390Y-3D01*
X-391Y-2D01*
X-391Y0D01*
X-392Y2D01*
X-391Y4D01*
X-391Y5D01*
X-390Y6D01*
X-389Y7D01*
X-388Y7D01*
X-386Y7D01*
X-386Y6D01*
G01X-370Y-3D02*
Y7D01*
X-365Y-1D01*
X-361Y7D01*
Y-3D01*
G01X-358D02*
Y7D01*
X-354Y-1D01*
X-350Y7D01*
Y-3D01*
G01X-493Y582D02*
X-503D01*
X-501Y580D01*
G01X-493D02*
Y584D01*
G01X-496Y592D02*
Y596D01*
G01X-501Y602D02*
X-502Y603D01*
X-503Y604D01*
X-503Y606D01*
X-502Y607D01*
X-502Y609D01*
X-501Y609D01*
X-500Y609D01*
X-499Y608D01*
X-497Y605D01*
X-496Y603D01*
X-494Y602D01*
X-493Y602D01*
Y609D01*
G01X-397Y62D02*
Y52D01*
X-390D01*
G01X-385Y61D02*
X-384Y62D01*
X-383Y62D01*
X-382Y62D01*
X-380Y62D01*
X-379Y61D01*
X-379Y60D01*
X-379Y59D01*
X-380Y58D01*
X-383Y57D01*
X-384Y56D01*
X-385Y54D01*
X-386Y52D01*
X-379D01*
G01X-358Y58D02*
X-357Y58D01*
X-357Y59D01*
X-356Y60D01*
X-357Y61D01*
X-357Y62D01*
X-358Y62D01*
X-363D01*
Y52D01*
X-357D01*
X-356Y53D01*
X-356Y54D01*
X-355Y55D01*
X-356Y56D01*
X-357Y57D01*
X-358Y58D01*
X-363D01*
G01X-348Y52D02*
X-349Y53D01*
X-350Y53D01*
X-351Y54D01*
X-352Y55D01*
X-352Y57D01*
Y58D01*
X-352Y59D01*
X-351Y61D01*
X-350Y62D01*
X-349Y62D01*
X-348Y62D01*
X-346Y62D01*
X-345Y62D01*
X-344Y61D01*
X-343Y59D01*
X-343Y58D01*
Y57D01*
X-343Y55D01*
X-344Y54D01*
X-345Y53D01*
X-346Y53D01*
X-348Y52D01*
G01X-336Y62D02*
Y52D01*
G01X-340Y62D02*
X-332D01*
G01X-325D02*
Y52D01*
G01X-328Y62D02*
X-321D01*
G01X-313Y52D02*
X-314Y53D01*
X-316Y53D01*
X-317Y54D01*
X-317Y55D01*
X-318Y57D01*
Y58D01*
X-317Y59D01*
X-317Y61D01*
X-316Y62D01*
X-314Y62D01*
X-313Y62D01*
X-312Y62D01*
X-311Y62D01*
X-310Y61D01*
X-309Y59D01*
X-309Y58D01*
Y57D01*
X-309Y55D01*
X-310Y54D01*
X-311Y53D01*
X-312Y53D01*
X-313Y52D01*
G01X-306D02*
Y62D01*
X-302Y54D01*
X-297Y62D01*
Y52D01*
G01X-275Y62D02*
X-276Y62D01*
X-277Y62D01*
X-278D01*
X-280Y62D01*
X-281Y61D01*
X-282Y60D01*
X-282Y58D01*
X-283Y57D01*
X-282Y55D01*
X-282Y54D01*
X-281Y53D01*
X-280Y53D01*
X-278Y52D01*
X-277D01*
X-276Y53D01*
X-275Y53D01*
X-274Y54D01*
G01X-267Y52D02*
X-268Y53D01*
X-269Y53D01*
X-270Y54D01*
X-271Y55D01*
X-271Y57D01*
Y58D01*
X-271Y59D01*
X-270Y61D01*
X-269Y62D01*
X-268Y62D01*
X-267Y62D01*
X-266Y62D01*
X-264Y62D01*
X-263Y61D01*
X-263Y59D01*
X-262Y58D01*
Y57D01*
X-263Y55D01*
X-263Y54D01*
X-264Y53D01*
X-266Y53D01*
X-267Y52D01*
G01X-259D02*
Y62D01*
X-252Y52D01*
Y62D01*
G01X-248Y52D02*
Y62D01*
X-244D01*
X-243Y62D01*
X-242Y61D01*
X-241Y60D01*
X-240Y59D01*
X-240Y57D01*
X-240Y56D01*
X-241Y55D01*
X-242Y54D01*
X-243Y53D01*
X-244Y52D01*
X-248D01*
G01X-236Y62D02*
Y55D01*
X-235Y54D01*
X-234Y53D01*
X-232Y52D01*
X-231Y53D01*
X-229Y54D01*
X-229Y55D01*
Y62D01*
G01X-217Y62D02*
X-218Y62D01*
X-219Y62D01*
X-221D01*
X-222Y62D01*
X-223Y61D01*
X-224Y60D01*
X-225Y58D01*
X-225Y57D01*
X-225Y55D01*
X-224Y54D01*
X-223Y53D01*
X-222Y53D01*
X-221Y52D01*
X-220D01*
X-219Y53D01*
X-218Y53D01*
X-217Y54D01*
G01X-209Y62D02*
Y52D01*
G01X-213Y62D02*
X-205D01*
G01X-198Y52D02*
X-199Y53D01*
X-200Y53D01*
X-201Y54D01*
X-202Y55D01*
X-202Y57D01*
Y58D01*
X-202Y59D01*
X-201Y61D01*
X-200Y62D01*
X-199Y62D01*
X-198Y62D01*
X-196Y62D01*
X-195Y62D01*
X-194Y61D01*
X-194Y59D01*
X-193Y58D01*
Y57D01*
X-194Y55D01*
X-194Y54D01*
X-195Y53D01*
X-196Y53D01*
X-198Y52D01*
G01X-190D02*
Y62D01*
X-185D01*
X-184Y62D01*
X-183Y61D01*
X-183Y60D01*
X-183Y59D01*
X-184Y58D01*
X-185Y57D01*
X-190D01*
G01X-185D02*
X-183Y52D01*
G01X-374Y39D02*
X-367Y46D01*
G01X-371Y47D02*
Y37D01*
G01X-367Y39D02*
X-374Y46D01*
G01X-376Y42D02*
X-366D01*
G01X-340Y40D02*
X-338Y40D01*
X-337Y39D01*
X-335D01*
X-334Y40D01*
X-333Y40D01*
X-333Y42D01*
X-333Y43D01*
X-334Y44D01*
X-335Y44D01*
X-337Y45D01*
X-338Y45D01*
X-339Y47D01*
X-339Y48D01*
X-338Y49D01*
X-337Y49D01*
X-335D01*
X-334Y49D01*
X-333Y48D01*
G01X-328Y49D02*
Y42D01*
X-328Y40D01*
X-326Y39D01*
X-325Y39D01*
X-323Y39D01*
X-322Y40D01*
X-321Y42D01*
Y49D01*
G01X-316Y39D02*
Y49D01*
X-312D01*
X-311Y49D01*
X-310Y48D01*
X-310Y47D01*
X-310Y45D01*
X-311Y44D01*
X-312Y44D01*
X-316D01*
G01X-312D02*
X-310Y39D01*
G01X-305D02*
Y49D01*
X-298D01*
G01X-301Y44D02*
X-305D01*
G01X-294Y39D02*
X-290Y49D01*
X-286Y39D01*
G01X-287Y43D02*
X-293D01*
G01X-275Y48D02*
X-276Y49D01*
X-277Y49D01*
X-278D01*
X-280Y49D01*
X-281Y48D01*
X-282Y47D01*
X-282Y45D01*
X-283Y44D01*
X-282Y42D01*
X-282Y41D01*
X-281Y40D01*
X-280Y39D01*
X-278Y39D01*
X-277D01*
X-276Y39D01*
X-275Y40D01*
X-274Y41D01*
G01X-264Y39D02*
X-270D01*
Y49D01*
X-264D01*
G01X-266Y44D02*
X-270D01*
G01X-374Y313D02*
X-367Y321D01*
G01X-371Y322D02*
Y312D01*
G01X-367Y313D02*
X-374Y321D01*
G01X-376Y317D02*
X-366D01*
G01X-340Y314D02*
Y324D01*
X-336D01*
X-335Y323D01*
X-334Y323D01*
X-333Y322D01*
X-333Y320D01*
X-332Y319D01*
X-333Y317D01*
X-333Y316D01*
X-334Y315D01*
X-335Y314D01*
X-336Y314D01*
X-340D01*
G01X-327Y324D02*
X-323D01*
G01X-325D02*
Y314D01*
G01X-327D02*
X-323D01*
G01X-310D02*
X-316D01*
Y324D01*
X-310D01*
G01X-312Y319D02*
X-316D01*
G01X-305Y324D02*
Y314D01*
X-298D01*
G01X-287D02*
X-293D01*
Y324D01*
X-287D01*
G01X-289Y319D02*
X-293D01*
G01X-275Y323D02*
X-276Y323D01*
X-277Y324D01*
X-278D01*
X-280Y323D01*
X-281Y322D01*
X-282Y321D01*
X-282Y320D01*
X-283Y318D01*
X-282Y317D01*
X-282Y316D01*
X-281Y315D01*
X-280Y314D01*
X-278Y314D01*
X-277D01*
X-276Y314D01*
X-275Y315D01*
X-274Y315D01*
G01X-267Y324D02*
Y314D01*
G01X-271Y324D02*
X-263D01*
G01X-259Y314D02*
Y324D01*
X-255D01*
X-253Y323D01*
X-252Y323D01*
X-252Y321D01*
X-252Y320D01*
X-253Y319D01*
X-255Y319D01*
X-259D01*
G01X-255D02*
X-252Y314D01*
G01X-246Y324D02*
X-242D01*
G01X-244D02*
Y314D01*
G01X-246D02*
X-242D01*
G01X-229Y323D02*
X-230Y323D01*
X-231Y324D01*
X-232D01*
X-234Y323D01*
X-235Y322D01*
X-236Y321D01*
X-236Y320D01*
X-237Y318D01*
X-236Y317D01*
X-236Y316D01*
X-235Y315D01*
X-234Y314D01*
X-232Y314D01*
X-231D01*
X-230Y314D01*
X-229Y315D01*
X-228Y315D01*
G01X-397Y564D02*
Y554D01*
X-390D01*
G01X-382D02*
Y564D01*
X-384Y562D01*
G01Y554D02*
X-380D01*
G01X-359Y564D02*
Y554D01*
G01X-363Y564D02*
X-355D01*
G01X-348Y554D02*
X-349Y554D01*
X-350Y555D01*
X-351Y556D01*
X-352Y557D01*
X-352Y558D01*
Y560D01*
X-352Y561D01*
X-351Y562D01*
X-350Y563D01*
X-349Y564D01*
X-348Y564D01*
X-346Y564D01*
X-345Y563D01*
X-344Y562D01*
X-343Y561D01*
X-343Y560D01*
Y558D01*
X-343Y557D01*
X-344Y556D01*
X-345Y555D01*
X-346Y554D01*
X-348Y554D01*
G01X-339D02*
Y564D01*
X-335D01*
X-334Y564D01*
X-333Y562D01*
X-333Y561D01*
X-333Y560D01*
X-334Y559D01*
X-335Y558D01*
X-339D01*
G01X-309Y563D02*
X-310Y564D01*
X-312Y564D01*
X-313D01*
X-314Y564D01*
X-316Y563D01*
X-316Y562D01*
X-317Y560D01*
X-317Y559D01*
X-317Y557D01*
X-316Y556D01*
X-315Y555D01*
X-314Y554D01*
X-313Y554D01*
X-312D01*
X-311Y554D01*
X-310Y555D01*
X-309Y556D01*
G01X-302Y554D02*
X-303Y554D01*
X-304Y555D01*
X-305Y556D01*
X-306Y557D01*
X-306Y558D01*
Y560D01*
X-306Y561D01*
X-305Y562D01*
X-304Y563D01*
X-303Y564D01*
X-302Y564D01*
X-300Y564D01*
X-299Y563D01*
X-298Y562D01*
X-297Y561D01*
X-297Y560D01*
Y558D01*
X-297Y557D01*
X-298Y556D01*
X-299Y555D01*
X-300Y554D01*
X-302Y554D01*
G01X-294D02*
Y564D01*
X-286Y554D01*
Y564D01*
G01X-282Y554D02*
Y564D01*
X-279D01*
X-277Y564D01*
X-276Y563D01*
X-276Y562D01*
X-275Y561D01*
X-275Y559D01*
X-275Y557D01*
X-276Y556D01*
X-276Y555D01*
X-277Y555D01*
X-279Y554D01*
X-282D01*
G01X-271Y564D02*
Y557D01*
X-270Y555D01*
X-269Y554D01*
X-267Y554D01*
X-265Y554D01*
X-264Y555D01*
X-263Y557D01*
Y564D01*
G01X-252Y563D02*
X-253Y564D01*
X-254Y564D01*
X-255D01*
X-257Y564D01*
X-258Y563D01*
X-259Y562D01*
X-259Y560D01*
X-260Y559D01*
X-259Y557D01*
X-259Y556D01*
X-258Y555D01*
X-257Y554D01*
X-255Y554D01*
X-254D01*
X-253Y554D01*
X-252Y555D01*
X-251Y556D01*
G01X-244Y564D02*
Y554D01*
G01X-248Y564D02*
X-240D01*
G01X-232Y554D02*
X-234Y554D01*
X-235Y555D01*
X-236Y556D01*
X-237Y557D01*
X-237Y558D01*
Y560D01*
X-237Y561D01*
X-236Y562D01*
X-235Y563D01*
X-234Y564D01*
X-232Y564D01*
X-231Y564D01*
X-230Y563D01*
X-229Y562D01*
X-228Y561D01*
X-228Y560D01*
Y558D01*
X-228Y557D01*
X-229Y556D01*
X-230Y555D01*
X-231Y554D01*
X-232Y554D01*
G01X-224D02*
Y564D01*
X-220D01*
X-219Y564D01*
X-218Y563D01*
X-218Y562D01*
X-218Y560D01*
X-219Y559D01*
X-220Y559D01*
X-224D01*
G01X-220D02*
X-218Y554D01*
G01X-374Y570D02*
X-367Y578D01*
G01X-371Y579D02*
Y569D01*
G01X-367Y570D02*
X-374Y578D01*
G01X-376Y574D02*
X-366D01*
G01X-340Y572D02*
X-338Y571D01*
X-337Y571D01*
X-335D01*
X-334Y571D01*
X-333Y572D01*
X-333Y573D01*
X-333Y574D01*
X-334Y575D01*
X-335Y576D01*
X-337Y576D01*
X-338Y577D01*
X-339Y578D01*
X-339Y579D01*
X-338Y580D01*
X-337Y581D01*
X-335D01*
X-334Y580D01*
X-333Y580D01*
G01X-328Y581D02*
Y574D01*
X-328Y572D01*
X-326Y571D01*
X-325Y571D01*
X-323Y571D01*
X-322Y572D01*
X-321Y574D01*
Y581D01*
G01X-316Y571D02*
Y581D01*
X-312D01*
X-311Y580D01*
X-310Y580D01*
X-310Y578D01*
X-310Y577D01*
X-311Y576D01*
X-312Y576D01*
X-316D01*
G01X-312D02*
X-310Y571D01*
G01X-305D02*
Y581D01*
X-298D01*
G01X-301Y576D02*
X-305D01*
G01X-294Y571D02*
X-290Y581D01*
X-286Y571D01*
G01X-287Y574D02*
X-293D01*
G01X-275Y580D02*
X-276Y580D01*
X-277Y581D01*
X-278D01*
X-280Y580D01*
X-281Y579D01*
X-282Y578D01*
X-282Y577D01*
X-283Y575D01*
X-282Y574D01*
X-282Y573D01*
X-281Y572D01*
X-280Y571D01*
X-278Y571D01*
X-277D01*
X-276Y571D01*
X-275Y572D01*
X-274Y572D01*
G01X-264Y571D02*
X-270D01*
Y581D01*
X-264D01*
G01X-266Y576D02*
X-270D01*
G54D12*
G01X-563Y66D02*
Y562D01*
X-410D01*
Y66D01*
X-563D01*
G01X-316Y-312D02*
Y-57D01*
X944D01*
Y-312D01*
X-316D01*
G01Y-249D02*
X944D01*
G01X-316Y-186D02*
X944D01*
G01X-316Y-122D02*
X944D01*
G01X-288Y-233D02*
Y-201D01*
X-273D01*
G01X-279Y-217D02*
X-288D01*
G01X-254Y-201D02*
X-244D01*
G01X-249D02*
Y-233D01*
G01X-254D02*
X-244D01*
G01X-215Y-217D02*
X-207D01*
Y-227D01*
X-210Y-230D01*
X-212Y-232D01*
X-216Y-233D01*
X-220Y-232D01*
X-223Y-230D01*
X-225Y-227D01*
X-227Y-223D01*
X-228Y-219D01*
Y-215D01*
X-227Y-212D01*
X-225Y-208D01*
X-223Y-205D01*
X-221Y-203D01*
X-218Y-201D01*
X-215D01*
X-212Y-202D01*
X-209Y-205D01*
G01X-195Y-201D02*
Y-224D01*
X-193Y-229D01*
X-190Y-232D01*
X-186Y-233D01*
X-182Y-232D01*
X-179Y-229D01*
X-177Y-224D01*
Y-201D01*
G01X-162Y-233D02*
Y-201D01*
X-153D01*
X-149Y-203D01*
X-147Y-205D01*
X-147Y-209D01*
X-147Y-214D01*
X-150Y-216D01*
X-153Y-218D01*
X-162D01*
G01X-153D02*
X-147Y-233D01*
G01X-115D02*
X-131D01*
Y-201D01*
X-115D01*
G01X-122Y-217D02*
X-131D01*
G01X-88Y-186D02*
Y-312D01*
G01X-121Y-170D02*
X-111Y-138D01*
X-101Y-170D01*
G01X-105Y-159D02*
X-118D01*
G01X-88Y-138D02*
Y-170D01*
X-72D01*
G01X-56Y-138D02*
Y-170D01*
X-40D01*
G01X6Y-138D02*
Y-161D01*
X8Y-165D01*
X11Y-169D01*
X15Y-170D01*
X19Y-169D01*
X22Y-165D01*
X23Y-161D01*
Y-138D01*
G01X37Y-170D02*
Y-138D01*
X55Y-170D01*
Y-138D01*
G01X73D02*
X82D01*
G01X78D02*
Y-170D01*
G01X73D02*
X82D01*
G01X109Y-138D02*
Y-170D01*
G01X100Y-138D02*
X118D01*
G01X132Y-165D02*
X136Y-168D01*
X139Y-170D01*
X142D01*
X145Y-168D01*
X148Y-165D01*
X149Y-162D01*
X148Y-158D01*
X146Y-155D01*
X143Y-153D01*
X138Y-152D01*
X135Y-150D01*
X134Y-146D01*
X135Y-142D01*
X137Y-139D01*
X140Y-138D01*
X142D01*
X145Y-139D01*
X147Y-142D01*
G01X194Y-170D02*
X204Y-138D01*
X214Y-170D01*
G01X210Y-159D02*
X197D01*
G01X227Y-170D02*
Y-138D01*
X237D01*
X240Y-139D01*
X242Y-142D01*
X243Y-146D01*
X242Y-150D01*
X240Y-153D01*
X237Y-154D01*
X227D01*
G01X237D02*
X243Y-170D01*
G01X275D02*
X259D01*
Y-138D01*
X275D01*
G01X268Y-153D02*
X259D01*
G01X325Y-138D02*
X334D01*
G01X330D02*
Y-170D01*
G01X325D02*
X334D01*
G01X352D02*
Y-138D01*
X370Y-170D01*
Y-138D01*
G01X414Y-170D02*
Y-138D01*
X424Y-164D01*
X434Y-138D01*
Y-170D01*
G01X451Y-138D02*
X460D01*
G01X456D02*
Y-170D01*
G01X451D02*
X460D01*
G01X479Y-138D02*
Y-170D01*
X495D01*
G01X511Y-138D02*
Y-170D01*
X527D01*
G01X545Y-138D02*
X555D01*
G01X550D02*
Y-170D01*
G01X545D02*
X555D01*
G01X571D02*
Y-138D01*
X582Y-164D01*
X592Y-138D01*
Y-170D01*
G01X621D02*
X605D01*
Y-138D01*
X621D01*
G01X615Y-153D02*
X605D01*
G01X645Y-138D02*
Y-170D01*
G01X636Y-138D02*
X654D01*
G01X684Y-170D02*
X668D01*
Y-138D01*
X684D01*
G01X678Y-153D02*
X668D01*
G01X700Y-170D02*
Y-138D01*
X710D01*
X713Y-139D01*
X715Y-142D01*
X715Y-146D01*
X715Y-150D01*
X712Y-153D01*
X710Y-154D01*
X700D01*
G01X710D02*
X715Y-170D01*
G01X731Y-165D02*
X734Y-168D01*
X738Y-170D01*
X741D01*
X744Y-168D01*
X746Y-165D01*
X747Y-162D01*
X747Y-158D01*
X745Y-155D01*
X741Y-153D01*
X736Y-152D01*
X734Y-150D01*
X732Y-146D01*
X733Y-142D01*
X735Y-139D01*
X738Y-138D01*
X741D01*
X743Y-139D01*
X746Y-142D01*
G01X-88Y-105D02*
Y-73D01*
X-81D01*
X-77Y-74D01*
X-75Y-77D01*
X-73Y-80D01*
X-72Y-83D01*
X-71Y-89D01*
X-72Y-94D01*
X-73Y-98D01*
X-75Y-101D01*
X-77Y-103D01*
X-81Y-105D01*
X-88D01*
G01X-56D02*
Y-73D01*
X-46D01*
X-43Y-74D01*
X-41Y-77D01*
X-40Y-81D01*
X-41Y-85D01*
X-44Y-88D01*
X-46Y-89D01*
X-56D01*
G01X-46D02*
X-40Y-105D01*
G01X-22Y-73D02*
X-12D01*
G01X-17D02*
Y-105D01*
G01X-22D02*
X-12D01*
G01X7Y-73D02*
Y-105D01*
X23D01*
G01X38Y-73D02*
Y-105D01*
X54D01*
G01X118Y-76D02*
X115Y-74D01*
X113Y-73D01*
X110D01*
X106Y-74D01*
X103Y-77D01*
X101Y-80D01*
X100Y-86D01*
X99Y-90D01*
X100Y-95D01*
X101Y-98D01*
X104Y-101D01*
X106Y-104D01*
X109Y-105D01*
X112D01*
X115Y-104D01*
X117Y-102D01*
X119Y-100D01*
G01X132Y-105D02*
Y-73D01*
G01X149D02*
Y-105D01*
G01Y-89D02*
X132D01*
G01X162Y-105D02*
X172Y-73D01*
X182Y-105D01*
G01X178Y-94D02*
X166D01*
G01X196Y-105D02*
Y-73D01*
X206D01*
X209Y-74D01*
X211Y-77D01*
X212Y-81D01*
X211Y-85D01*
X208Y-88D01*
X206Y-89D01*
X196D01*
G01X206D02*
X212Y-105D01*
G01X235Y-73D02*
Y-105D01*
G01X226Y-73D02*
X244D01*
G01X267Y-106D02*
X266Y-105D01*
Y-104D01*
X267Y-104D01*
X267Y-105D01*
X267Y-106D01*
G01Y-91D02*
X266Y-91D01*
Y-90D01*
X267Y-89D01*
X267Y-90D01*
Y-91D01*
G01X330Y-73D02*
Y-105D01*
G01X321Y-73D02*
X339D01*
G01X361Y-105D02*
X358Y-104D01*
X355Y-102D01*
X353Y-99D01*
X351Y-95D01*
X351Y-91D01*
Y-87D01*
X351Y-82D01*
X353Y-79D01*
X355Y-76D01*
X358Y-73D01*
X361Y-73D01*
X364Y-73D01*
X367Y-76D01*
X369Y-79D01*
X371Y-82D01*
X372Y-87D01*
Y-91D01*
X371Y-95D01*
X369Y-99D01*
X367Y-102D01*
X364Y-104D01*
X361Y-105D01*
G01X385D02*
Y-73D01*
X394D01*
X397Y-74D01*
X400Y-78D01*
X401Y-82D01*
X400Y-87D01*
X398Y-90D01*
X394Y-91D01*
X385D01*
G01X456Y-73D02*
Y-105D01*
G01X450Y-83D02*
X461D01*
G01X487Y-105D02*
X485Y-104D01*
X482Y-102D01*
X481Y-98D01*
X480Y-94D01*
X481Y-90D01*
X482Y-86D01*
X485Y-84D01*
X487Y-83D01*
X490Y-84D01*
X492Y-86D01*
X493Y-90D01*
X494Y-94D01*
X493Y-98D01*
X492Y-102D01*
X490Y-104D01*
X487Y-105D01*
G01X553Y-88D02*
X555Y-86D01*
X556Y-83D01*
X557Y-80D01*
X556Y-77D01*
X554Y-74D01*
X552Y-73D01*
X541D01*
Y-105D01*
X554D01*
X557Y-103D01*
X558Y-99D01*
X559Y-96D01*
X558Y-92D01*
X556Y-89D01*
X553Y-88D01*
X541D01*
G01X582Y-105D02*
X578Y-104D01*
X576Y-102D01*
X573Y-99D01*
X572Y-95D01*
X571Y-91D01*
Y-87D01*
X572Y-82D01*
X573Y-79D01*
X576Y-76D01*
X578Y-73D01*
X582Y-73D01*
X585Y-73D01*
X588Y-76D01*
X590Y-79D01*
X591Y-82D01*
X592Y-87D01*
Y-91D01*
X591Y-95D01*
X590Y-99D01*
X588Y-102D01*
X585Y-104D01*
X582Y-105D01*
G01X613Y-73D02*
Y-105D01*
G01X604Y-73D02*
X622D01*
G01X645D02*
Y-105D01*
G01X636Y-73D02*
X654D01*
G01X676Y-105D02*
X673Y-104D01*
X670Y-102D01*
X668Y-99D01*
X666Y-95D01*
X665Y-91D01*
Y-87D01*
X666Y-82D01*
X668Y-79D01*
X670Y-76D01*
X673Y-73D01*
X676Y-73D01*
X679Y-73D01*
X682Y-76D01*
X684Y-79D01*
X686Y-82D01*
X687Y-87D01*
Y-91D01*
X686Y-95D01*
X684Y-99D01*
X682Y-102D01*
X679Y-104D01*
X676Y-105D01*
G01X697D02*
Y-73D01*
X708Y-99D01*
X718Y-73D01*
Y-105D01*
G01X-28Y-233D02*
Y-201D01*
X-13D01*
G01X-19Y-217D02*
X-28D01*
G01X6Y-201D02*
X15D01*
G01X11D02*
Y-233D01*
G01X6D02*
X15D01*
G01X33D02*
Y-201D01*
X51Y-233D01*
Y-201D01*
G01X69D02*
X78D01*
G01X74D02*
Y-233D01*
G01X69D02*
X78D01*
G01X97Y-229D02*
X100Y-232D01*
X104Y-233D01*
X107D01*
X110Y-232D01*
X112Y-229D01*
X114Y-225D01*
X113Y-221D01*
X111Y-218D01*
X107Y-216D01*
X103Y-215D01*
X100Y-213D01*
X99Y-209D01*
X99Y-206D01*
X101Y-203D01*
X104Y-201D01*
X107D01*
X110Y-202D01*
X112Y-205D01*
G01X128Y-233D02*
Y-201D01*
G01X145D02*
Y-233D01*
G01Y-217D02*
X128D01*
G01X176Y-233D02*
X160D01*
Y-201D01*
X176D01*
G01X170Y-217D02*
X160D01*
G01X191Y-233D02*
Y-201D01*
X199D01*
X202Y-203D01*
X204Y-205D01*
X206Y-208D01*
X208Y-212D01*
X208Y-217D01*
X208Y-223D01*
X206Y-226D01*
X204Y-229D01*
X202Y-232D01*
X199Y-233D01*
X191D01*
G01X219Y-244D02*
X243D01*
G01X254Y-229D02*
X258Y-232D01*
X261Y-233D01*
X264D01*
X267Y-232D01*
X270Y-229D01*
X271Y-225D01*
X270Y-221D01*
X268Y-218D01*
X265Y-216D01*
X260Y-215D01*
X257Y-213D01*
X256Y-209D01*
X257Y-206D01*
X259Y-203D01*
X262Y-201D01*
X264D01*
X267Y-202D01*
X269Y-205D01*
G01X290Y-201D02*
X299D01*
G01X294D02*
Y-233D01*
G01X290D02*
X299D01*
G01X318Y-201D02*
X333D01*
X318Y-233D01*
X333D01*
G01X365D02*
X349D01*
Y-201D01*
X365D01*
G01X359Y-217D02*
X349D01*
G01X137Y-265D02*
X134Y-266D01*
X131Y-269D01*
X130Y-272D01*
X128Y-276D01*
X128Y-281D01*
X128Y-286D01*
X130Y-290D01*
X131Y-293D01*
X134Y-296D01*
X137Y-297D01*
X140Y-296D01*
X142Y-293D01*
X144Y-290D01*
X145Y-286D01*
X145Y-281D01*
X145Y-276D01*
X144Y-272D01*
X142Y-269D01*
X140Y-266D01*
X137Y-265D01*
G01X168Y-298D02*
X167Y-297D01*
Y-296D01*
X168Y-296D01*
X169Y-296D01*
Y-297D01*
X168Y-298D01*
G01X204Y-297D02*
Y-265D01*
X190Y-288D01*
X210D01*
G01X424Y-186D02*
Y-312D01*
G01X499Y-297D02*
Y-265D01*
X508D01*
X512Y-266D01*
X514Y-270D01*
X515Y-274D01*
X514Y-279D01*
X512Y-282D01*
X508Y-283D01*
X499D01*
G01X530Y-265D02*
Y-297D01*
X546D01*
G01X560D02*
X570Y-265D01*
X580Y-297D01*
G01X576Y-286D02*
X564D01*
G01X601Y-265D02*
Y-297D01*
G01X592Y-265D02*
X610D01*
G01X641Y-297D02*
X625D01*
Y-265D01*
X641D01*
G01X634Y-280D02*
X625D01*
G01X656Y-297D02*
Y-265D01*
X664D01*
X667Y-266D01*
X669Y-269D01*
X671Y-272D01*
X673Y-275D01*
X673Y-281D01*
X673Y-286D01*
X671Y-290D01*
X669Y-293D01*
X667Y-295D01*
X664Y-297D01*
X656D01*
G01X499Y-233D02*
Y-201D01*
X508D01*
X512Y-203D01*
X514Y-207D01*
X515Y-211D01*
X514Y-215D01*
X512Y-218D01*
X508Y-220D01*
X499D01*
G01X530Y-201D02*
Y-233D01*
X546D01*
G01X560D02*
X570Y-201D01*
X580Y-233D01*
G01X576Y-222D02*
X564D01*
G01X601Y-201D02*
Y-233D01*
G01X592Y-201D02*
X610D01*
G01X641Y-233D02*
X625D01*
Y-201D01*
X641D01*
G01X634Y-217D02*
X625D01*
G01X656Y-233D02*
Y-201D01*
X664D01*
X667Y-203D01*
X669Y-205D01*
X671Y-208D01*
X673Y-212D01*
X673Y-217D01*
X673Y-223D01*
X671Y-226D01*
X669Y-229D01*
X667Y-232D01*
X664Y-233D01*
X656D01*
G01X747Y-186D02*
Y-312D01*
G01X830Y-297D02*
Y-265D01*
X825Y-271D01*
G01Y-297D02*
X834D01*
G01X866D02*
Y-265D01*
X851Y-288D01*
X871D01*
G01X814Y-233D02*
X811Y-233D01*
X808Y-230D01*
X806Y-227D01*
X804Y-224D01*
X803Y-219D01*
Y-215D01*
X804Y-211D01*
X806Y-207D01*
X808Y-204D01*
X811Y-202D01*
X814Y-201D01*
X817Y-202D01*
X820Y-204D01*
X822Y-207D01*
X824Y-211D01*
X825Y-215D01*
Y-219D01*
X824Y-224D01*
X822Y-227D01*
X820Y-230D01*
X817Y-233D01*
X814Y-233D01*
G01X817Y-225D02*
X822Y-233D01*
G01X845Y-201D02*
Y-233D01*
G01X836Y-201D02*
X854D01*
G01X877Y-233D02*
Y-219D01*
X869Y-201D01*
G01X885D02*
X877Y-219D01*
M02*
