G04 ================== begin FILE IDENTIFICATION RECORD ==================*
G04 Layout Name:  E:/greu/allegro/P1.brd*
G04 Film Name:    SSTOP*
G04 File Format:  Gerber RS274X*
G04 File Origin:  Cadence Allegro 17.2-S025*
G04 Origin Date:  Sun Dec 15 03:01:12 2024*
G04 *
G04 Layer:  PACKAGE GEOMETRY/SILKSCREEN_TOP*
G04 Layer:  BOARD GEOMETRY/SILKSCREEN_TOP*
G04 *
G04 Offset:    (0.0000 0.0000)*
G04 Mirror:    No*
G04 Mode:      Positive*
G04 Rotation:  0*
G04 FullContactRelief:  No*
G04 UndefLineWidth:     0.1000*
G04 ================== end FILE IDENTIFICATION RECORD ====================*
%FSLAX31Y31*MOMM*%
%IR0*IPPOS*OFA0.00000B0.00000*MIA0B0*SFA1.00000B1.00000*%
%ADD10C,.1*%
%ADD11C,.1524*%
G75*
%LPD*%
G75*
G54D10*
G01X28Y337D02*
Y329D01*
X38D01*
G01X47Y340D02*
Y347D01*
G01X28Y350D02*
Y357D01*
X38D01*
G01X134Y245D02*
X126D01*
Y235D01*
G01X147Y245D02*
X154D01*
Y235D01*
G01X137Y226D02*
X144D01*
G01X128Y279D02*
Y271D01*
X138D01*
G01X128Y292D02*
Y299D01*
X138D01*
G01X147Y282D02*
Y289D01*
G01X191Y86D02*
Y78D01*
X201D01*
G01X210Y89D02*
Y96D01*
G01X191Y99D02*
Y106D01*
X201D01*
G01X182Y366D02*
Y358D01*
X192D01*
G01X182Y379D02*
Y386D01*
X192D01*
G01X201Y369D02*
Y376D01*
G01X243Y228D02*
Y220D01*
X253D01*
G01X243Y241D02*
Y248D01*
X253D01*
G01X262Y231D02*
Y238D01*
G54D11*
G01X68Y42D02*
Y83D01*
G01D02*
X88D01*
G01Y42D02*
X68D01*
G01X20Y233D02*
Y145D01*
G01D02*
X58D01*
G01D02*
Y233D01*
G01D02*
X20D01*
G01X89Y263D02*
X69D01*
G01D02*
Y304D01*
G01D02*
X89D01*
G01X90Y338D02*
X70D01*
G01D02*
Y379D01*
G01D02*
X90D01*
G01X88Y83D02*
Y42D01*
G01X137Y182D02*
Y141D01*
G01D02*
X117D01*
G01D02*
Y182D01*
G01D02*
X137D01*
G01X89Y304D02*
Y263D01*
G01X90Y379D02*
Y338D01*
G01X143Y384D02*
Y343D01*
G01D02*
X123D01*
G01D02*
Y384D01*
G01D02*
X143D01*
G01X200Y293D02*
Y252D01*
G01D02*
X180D01*
G01D02*
Y293D01*
G01D02*
X200D01*
G01X259Y369D02*
X218D01*
G01D02*
Y389D01*
G01D02*
X259D01*
G01X274Y81D02*
Y40D01*
G01D02*
X254D01*
G01D02*
Y81D01*
G01D02*
X274D01*
G01X276Y155D02*
Y114D01*
G01D02*
X256D01*
G01D02*
Y155D01*
G01D02*
X276D01*
G01X306Y236D02*
Y195D01*
G01D02*
X286D01*
G01D02*
Y236D01*
G01D02*
X306D01*
G01X308Y281D02*
X288D01*
G01D02*
Y322D01*
G01D02*
X308D01*
G01X279Y320D02*
X238D01*
G01D02*
Y340D01*
G01X279D02*
Y320D01*
G01X259Y389D02*
Y369D01*
G01X289Y344D02*
Y385D01*
G01D02*
X309D01*
G01Y344D02*
X289D01*
G01X238Y340D02*
X279D01*
G01X353Y141D02*
Y182D01*
G01X373D02*
Y141D01*
G01D02*
X353D01*
G01X339Y224D02*
X377D01*
G01D02*
Y312D01*
G01X339D02*
Y224D01*
G01X353Y182D02*
X373D01*
G01X377Y312D02*
X339D01*
G01X308Y322D02*
Y281D01*
G01X309Y385D02*
Y344D01*
M02*
