G04 ================== begin FILE IDENTIFICATION RECORD ==================*
G04 Layout Name:  E:/greu/allegro/P1.brd*
G04 Film Name:    TOP*
G04 File Format:  Gerber RS274X*
G04 File Origin:  Cadence Allegro 17.2-S025*
G04 Origin Date:  Sun Dec 15 03:01:12 2024*
G04 *
G04 Layer:  ETCH/TOP*
G04 Layer:  PIN/TOP*
G04 Layer:  VIA CLASS/TOP*
G04 *
G04 Offset:    (0.0000 0.0000)*
G04 Mirror:    No*
G04 Mode:      Positive*
G04 Rotation:  0*
G04 FullContactRelief:  No*
G04 UndefLineWidth:     0.1000*
G04 ================== end FILE IDENTIFICATION RECORD ====================*
%FSLAX31Y31*MOMM*%
%IR0*IPPOS*OFA0.00000B0.00000*MIA0B0*SFA1.00000B1.00000*%
%ADD14C,.7*%
%ADD15R,.9144X1.27*%
%ADD13R,1.27X.9144*%
%ADD11C,1.*%
%ADD10R,1.27X1.27*%
%ADD12R,3.048X1.9304*%
%ADD16C,.1*%
%ADD17C,.4*%
%ADD18C,.45*%
G75*
%LPD*%
G75*
G54D10*
X78Y73D03*
Y52D03*
X79Y273D03*
Y294D03*
X80Y348D03*
Y369D03*
X127Y151D03*
Y172D03*
X133Y353D03*
Y374D03*
X190Y262D03*
Y283D03*
X228Y379D03*
X264Y50D03*
Y71D03*
X266Y124D03*
Y145D03*
X296Y205D03*
Y226D03*
X298Y291D03*
Y312D03*
X248Y330D03*
X269D03*
X249Y379D03*
X299Y375D03*
Y354D03*
X363Y172D03*
Y151D03*
G54D11*
X50Y50D03*
X350Y350D03*
G54D12*
X39Y159D03*
Y219D03*
X358Y238D03*
Y298D03*
G54D13*
X47Y333D03*
X26Y343D03*
X47Y354D03*
X125Y285D03*
X146Y275D03*
Y296D03*
X189Y92D03*
X210Y82D03*
Y103D03*
X214Y175D03*
X235Y186D03*
X214Y196D03*
X179Y372D03*
X200Y362D03*
Y383D03*
X240Y234D03*
X261Y224D03*
Y245D03*
G54D14*
X125Y52D03*
Y101D03*
X125Y315D03*
X183Y177D03*
X162Y248D03*
X225Y216D03*
X214Y235D03*
X201Y335D03*
X278Y224D03*
X271Y205D03*
X289Y245D03*
X235Y264D03*
X284Y326D03*
X363Y112D03*
G54D15*
X140Y248D03*
X130Y227D03*
X151D03*
G54D16*
G01X25Y20D02*
Y28D01*
X27D01*
X28Y27D01*
X29Y27D01*
X29Y26D01*
X29Y25D01*
X28Y24D01*
X27Y24D01*
X25D01*
G01X27D02*
X29Y20D01*
G01X32D02*
X35Y28D01*
X37Y20D01*
G01X36Y23D02*
X33D01*
G01X41Y20D02*
Y28D01*
X42D01*
X43Y27D01*
X44Y27D01*
X44Y26D01*
X45Y25D01*
X45Y24D01*
X45Y23D01*
X44Y22D01*
X44Y21D01*
X43Y20D01*
X42Y20D01*
X41D01*
G01X48Y28D02*
Y22D01*
X49Y21D01*
X50Y20D01*
X51Y20D01*
X52Y20D01*
X52Y21D01*
X53Y22D01*
Y28D01*
G01X56D02*
Y20D01*
X60D01*
G01X68D02*
X64D01*
Y28D01*
X68D01*
G01X67Y24D02*
X64D01*
G01X72Y21D02*
X73Y20D01*
X74Y20D01*
X75D01*
X76Y21D01*
X76Y22D01*
X76Y23D01*
X76Y24D01*
X75Y24D01*
X73Y24D01*
X73Y25D01*
X73Y26D01*
X73Y27D01*
X74Y28D01*
X75D01*
X76Y27D01*
G01X84Y27D02*
X84Y28D01*
X83Y28D01*
X82D01*
X81Y27D01*
X80Y26D01*
X80Y25D01*
X80Y24D01*
X80Y22D01*
X81Y21D01*
X81Y20D01*
X82Y20D01*
X83D01*
X84Y21D01*
G01X88Y28D02*
Y22D01*
X88Y21D01*
X89Y20D01*
X90Y20D01*
X91Y20D01*
X92Y21D01*
X92Y22D01*
Y28D01*
G01X104Y20D02*
Y28D01*
X105D01*
X106Y27D01*
X107Y27D01*
X107Y26D01*
X108Y25D01*
X108Y24D01*
X108Y23D01*
X107Y22D01*
X107Y21D01*
X106Y20D01*
X105Y20D01*
X104D01*
G01X111D02*
X114Y28D01*
X116Y20D01*
G01X115Y23D02*
X112D01*
G01X119Y28D02*
X121Y20D01*
X124Y28D01*
G01X128D02*
X130D01*
G01X129D02*
Y20D01*
G01X128D02*
X130D01*
G01X135D02*
Y28D01*
X137D01*
X138Y27D01*
X139Y26D01*
X139Y25D01*
X139Y24D01*
X139Y23D01*
X139Y22D01*
X138Y21D01*
X138Y20D01*
X137Y20D01*
X135D01*
G01X151Y21D02*
X152Y20D01*
X153Y20D01*
X154Y20D01*
X155Y21D01*
X155Y22D01*
X155Y23D01*
X154Y24D01*
X153Y24D01*
X152Y24D01*
X152Y25D01*
X151Y26D01*
X151Y27D01*
X152Y27D01*
X153Y28D01*
X154Y28D01*
X155Y27D01*
G01X161Y28D02*
Y20D01*
G01X159Y28D02*
X163D01*
G01X171Y20D02*
X167D01*
Y28D01*
X171D01*
G01X169Y24D02*
X167D01*
G01X175Y20D02*
Y28D01*
X178D01*
G01X177Y24D02*
X175D01*
G01X182Y20D02*
X184Y28D01*
X187Y20D01*
G01X186Y23D02*
X183D01*
G01X190Y20D02*
Y28D01*
X195Y20D01*
Y28D01*
G01X209Y20D02*
Y28D01*
X206Y22D01*
X210D01*
G01X214Y22D02*
X214Y21D01*
X215Y20D01*
X216Y20D01*
X217Y20D01*
X218Y21D01*
X218Y22D01*
X218Y23D01*
X217Y24D01*
X216Y24D01*
G01X217D02*
X217Y25D01*
X218Y25D01*
X218Y26D01*
X218Y27D01*
X217Y27D01*
X216Y28D01*
X215Y28D01*
X215Y27D01*
G01X222Y22D02*
X222Y21D01*
X223Y20D01*
X224Y20D01*
X225Y20D01*
X225Y21D01*
X226Y22D01*
X226Y23D01*
X225Y24D01*
X224Y24D01*
G01D02*
X225Y25D01*
X226Y25D01*
X226Y26D01*
X226Y27D01*
X225Y27D01*
X224Y28D01*
X223Y28D01*
X222Y27D01*
G01X234D02*
X233Y28D01*
X232Y28D01*
X231Y27D01*
X230Y27D01*
X230Y26D01*
X229Y25D01*
X229Y24D01*
X229Y22D01*
X230Y22D01*
X230Y21D01*
X231Y20D01*
X232Y20D01*
X233Y20D01*
X234Y21D01*
G01X245Y20D02*
Y28D01*
X248D01*
X249Y27D01*
X249Y26D01*
X249Y24D01*
X248Y23D01*
X245D01*
G01X255Y20D02*
Y28D01*
X254Y26D01*
G01Y20D02*
X256D01*
G01X261D02*
Y28D01*
X263D01*
X264Y27D01*
X265Y26D01*
X265Y25D01*
X265Y24D01*
X265Y23D01*
X265Y22D01*
X264Y21D01*
X264Y20D01*
X263Y20D01*
X261D01*
G01X273Y27D02*
X273Y28D01*
X272Y28D01*
X271D01*
X270Y27D01*
X269Y26D01*
X269Y25D01*
X269Y24D01*
X269Y22D01*
X270Y21D01*
X270Y20D01*
X271Y20D01*
X272D01*
X273Y21D01*
G01X281Y20D02*
X277D01*
Y28D01*
X281D01*
G01X279Y24D02*
X277D01*
G01X293Y27D02*
X294Y28D01*
X295Y28D01*
X296Y28D01*
X296Y27D01*
X297Y26D01*
X297Y25D01*
X296Y25D01*
X294Y23D01*
X293Y22D01*
X293Y21D01*
X293Y20D01*
X297D01*
G01X303Y28D02*
X302Y28D01*
X301Y27D01*
X301Y26D01*
X300Y25D01*
X300Y24D01*
X300Y23D01*
X301Y22D01*
X301Y21D01*
X302Y20D01*
X303Y20D01*
X304Y21D01*
X304Y22D01*
X305Y23D01*
X305Y24D01*
X305Y25D01*
X304Y26D01*
X304Y27D01*
X303Y28D01*
G01X309Y27D02*
X310Y28D01*
X311Y28D01*
X312Y28D01*
X312Y27D01*
X312Y26D01*
X312Y25D01*
X310Y23D01*
X309Y22D01*
X309Y21D01*
X308Y20D01*
X312D01*
G01X319D02*
Y28D01*
X316Y22D01*
X321D01*
G01X325Y23D02*
X327D01*
G01X332Y27D02*
X333Y27D01*
X333Y28D01*
X334Y28D01*
X335Y28D01*
X336Y27D01*
X336Y26D01*
X336Y25D01*
X334Y23D01*
X333Y22D01*
X332Y21D01*
X332Y20D01*
X336D01*
G01X342Y28D02*
X341Y28D01*
X341Y27D01*
X340Y26D01*
X340Y25D01*
X340Y24D01*
X340Y23D01*
X340Y22D01*
X341Y21D01*
X341Y20D01*
X342Y20D01*
X343Y20D01*
X343Y21D01*
X344Y22D01*
X344Y23D01*
X344Y24D01*
X344Y25D01*
X344Y26D01*
X343Y27D01*
X343Y28D01*
X342Y28D01*
G01X348Y27D02*
X349Y28D01*
X350Y28D01*
X351Y28D01*
X352Y27D01*
X352Y26D01*
X352Y25D01*
X351Y25D01*
X349Y23D01*
X348Y22D01*
X348Y21D01*
X348Y20D01*
X352D01*
G01X355Y21D02*
X356Y21D01*
X357Y20D01*
X358Y20D01*
X359Y20D01*
X359Y21D01*
X360Y22D01*
X360Y23D01*
X360Y24D01*
X359Y24D01*
X358Y25D01*
X357D01*
X356Y24D01*
X356Y28D01*
X359D01*
G54D17*
G01X78Y52D02*
X125D01*
G01X130Y227D02*
X85D01*
X79Y233D01*
Y273D01*
G01D02*
X51D01*
X47Y277D01*
Y333D01*
G01X79Y294D02*
Y310D01*
X80Y311D01*
Y348D01*
G01X127Y151D02*
Y114D01*
X125Y112D01*
Y101D01*
G01X127Y172D02*
Y185D01*
X126Y186D01*
Y192D01*
X130Y196D01*
Y227D01*
G01X151D02*
X186D01*
X190Y231D01*
Y262D01*
G01X140Y248D02*
X162D01*
G01X146Y275D02*
Y263D01*
X143Y260D01*
X137D01*
X134Y263D01*
X110D01*
X105Y268D01*
Y286D01*
X97Y294D01*
X79D01*
G01X125Y285D02*
Y315D01*
G01X146Y296D02*
Y307D01*
X145Y308D01*
Y325D01*
X141Y329D01*
X137D01*
X133Y333D01*
Y353D01*
G01X214Y175D02*
Y162D01*
X215Y161D01*
Y138D01*
X211Y134D01*
X163D01*
X159Y130D01*
Y99D01*
X166Y92D01*
X189D01*
G01X214Y175D02*
X204D01*
X199Y175D01*
X197Y177D01*
X183D01*
G01X214Y196D02*
Y212D01*
X218Y216D01*
X225D01*
G01X240Y234D02*
X228D01*
X224Y234D01*
X223Y235D01*
X214D01*
G01X228Y379D02*
Y271D01*
X235Y264D01*
G01X228Y379D02*
X213D01*
X209Y383D01*
X200D01*
G01Y362D02*
Y344D01*
X201Y343D01*
Y335D01*
G01X264Y71D02*
Y94D01*
X266Y96D01*
Y124D01*
G01X296Y205D02*
Y179D01*
X292Y175D01*
X272D01*
X266Y169D01*
Y145D01*
G01X278Y224D02*
X261D01*
G01X271Y205D02*
X296D01*
G01Y226D02*
Y239D01*
X298Y241D01*
Y291D01*
G01X240Y234D02*
X240Y209D01*
X244Y205D01*
X250D01*
X254Y201D01*
Y190D01*
X250Y186D01*
X235D01*
G01X249Y379D02*
Y351D01*
X248Y350D01*
Y330D01*
G01X299Y375D02*
X289D01*
X289Y374D01*
X284D01*
X279Y379D01*
X249D01*
G54D18*
G01X39Y159D02*
Y78D01*
X44Y74D01*
X77D01*
X78Y73D01*
G01X210Y82D02*
Y74D01*
X212Y72D01*
Y55D01*
X209Y52D01*
X150D01*
X129Y73D01*
X78D01*
G01X26Y343D02*
Y323D01*
X26Y317D01*
X24Y315D01*
Y287D01*
X39Y272D01*
Y219D01*
G01X80Y369D02*
X66D01*
X61Y369D01*
X55Y375D01*
X19D01*
X13Y369D01*
Y347D01*
X17Y343D01*
X26D01*
G01X133Y374D02*
X123D01*
X111Y374D01*
X106Y369D01*
X80D01*
G01X179Y372D02*
X179Y373D01*
X159D01*
X158Y374D01*
X133D01*
G01X264Y50D02*
X263Y51D01*
X240D01*
X235Y56D01*
Y78D01*
X230Y82D01*
X210D01*
G01X190Y283D02*
Y321D01*
X179Y332D01*
Y372D01*
G01X363Y172D02*
X362Y171D01*
X338D01*
X333Y166D01*
Y58D01*
X325Y50D01*
X264D01*
G01X261Y245D02*
Y308D01*
X266Y313D01*
X297D01*
X298Y312D01*
G01X261Y245D02*
X289D01*
G01X269Y330D02*
X280D01*
X284Y326D01*
G01X298Y312D02*
Y332D01*
X299Y333D01*
G01D02*
Y354D01*
G01Y333D02*
X320D01*
X327Y326D01*
Y303D01*
X332Y298D01*
X358D01*
G01X363Y172D02*
Y196D01*
X358Y201D01*
Y238D01*
G01X363Y112D02*
Y151D01*
M02*
